<svg width="16" height="19" viewBox="0 0 16 19" fill="none" xmlns="http://www.w3.org/2000/svg">
<path d="M1.89453 18.3105C1.41328 18.3105 1.0013 18.1392 0.658594 17.7965C0.315885 17.4538 0.144531 17.0418 0.144531 16.5605V4.31055C0.144531 3.8293 0.315885 3.41732 0.658594 3.07461C1.0013 2.7319 1.41328 2.56055 1.89453 2.56055H2.76953V0.810547H4.51953V2.56055H11.5195V0.810547H13.2695V2.56055H14.1445C14.6258 2.56055 15.0378 2.7319 15.3805 3.07461C15.7232 3.41732 15.8945 3.8293 15.8945 4.31055V16.5605C15.8945 17.0418 15.7232 17.4538 15.3805 17.7965C15.0378 18.1392 14.6258 18.3105 14.1445 18.3105H1.89453ZM1.89453 16.5605H14.1445V7.81055H1.89453V16.5605ZM1.89453 6.06055H14.1445V4.31055H1.89453V6.06055ZM8.01953 11.3105C7.77161 11.3105 7.5638 11.2267 7.39609 11.059C7.22839 10.8913 7.14453 10.6835 7.14453 10.4355C7.14453 10.1876 7.22839 9.97982 7.39609 9.81211C7.5638 9.6444 7.77161 9.56055 8.01953 9.56055C8.26745 9.56055 8.47526 9.6444 8.64297 9.81211C8.81068 9.97982 8.89453 10.1876 8.89453 10.4355C8.89453 10.6835 8.81068 10.8913 8.64297 11.059C8.47526 11.2267 8.26745 11.3105 8.01953 11.3105ZM4.51953 11.3105C4.27161 11.3105 4.0638 11.2267 3.89609 11.059C3.72839 10.8913 3.64453 10.6835 3.64453 10.4355C3.64453 10.1876 3.72839 9.97982 3.89609 9.81211C4.0638 9.6444 4.27161 9.56055 4.51953 9.56055C4.76745 9.56055 4.97526 9.6444 5.14297 9.81211C5.31068 9.97982 5.39453 10.1876 5.39453 10.4355C5.39453 10.6835 5.31068 10.8913 5.14297 11.059C4.97526 11.2267 4.76745 11.3105 4.51953 11.3105ZM11.5195 11.3105C11.2716 11.3105 11.0638 11.2267 10.8961 11.059C10.7284 10.8913 10.6445 10.6835 10.6445 10.4355C10.6445 10.1876 10.7284 9.97982 10.8961 9.81211C11.0638 9.6444 11.2716 9.56055 11.5195 9.56055C11.7674 9.56055 11.9753 9.6444 12.143 9.81211C12.3107 9.97982 12.3945 10.1876 12.3945 10.4355C12.3945 10.6835 12.3107 10.8913 12.143 11.059C11.9753 11.2267 11.7674 11.3105 11.5195 11.3105ZM8.01953 14.8105C7.77161 14.8105 7.5638 14.7267 7.39609 14.559C7.22839 14.3913 7.14453 14.1835 7.14453 13.9355C7.14453 13.6876 7.22839 13.4798 7.39609 13.3121C7.5638 13.1444 7.77161 13.0605 8.01953 13.0605C8.26745 13.0605 8.47526 13.1444 8.64297 13.3121C8.81068 13.4798 8.89453 13.6876 8.89453 13.9355C8.89453 14.1835 8.81068 14.3913 8.64297 14.559C8.47526 14.7267 8.26745 14.8105 8.01953 14.8105ZM4.51953 14.8105C4.27161 14.8105 4.0638 14.7267 3.89609 14.559C3.72839 14.3913 3.64453 14.1835 3.64453 13.9355C3.64453 13.6876 3.72839 13.4798 3.89609 13.3121C4.0638 13.1444 4.27161 13.0605 4.51953 13.0605C4.76745 13.0605 4.97526 13.1444 5.14297 13.3121C5.31068 13.4798 5.39453 13.6876 5.39453 13.9355C5.39453 14.1835 5.31068 14.3913 5.14297 14.559C4.97526 14.7267 4.76745 14.8105 4.51953 14.8105ZM11.5195 14.8105C11.2716 14.8105 11.0638 14.7267 10.8961 14.559C10.7284 14.3913 10.6445 14.1835 10.6445 13.9355C10.6445 13.6876 10.7284 13.4798 10.8961 13.3121C11.0638 13.1444 11.2716 13.0605 11.5195 13.0605C11.7674 13.0605 11.9753 13.1444 12.143 13.3121C12.3107 13.4798 12.3945 13.6876 12.3945 13.9355C12.3945 14.1835 12.3107 14.3913 12.143 14.559C11.9753 14.7267 11.7674 14.8105 11.5195 14.8105Z" fill="#555555"/>
</svg>
