<svg width="18" height="19" viewBox="0 0 18 19" fill="none" xmlns="http://www.w3.org/2000/svg">
<path d="M11.907 13.5065L13.132 12.2815L9.89453 9.04404V5.01904H8.14453V9.74404L11.907 13.5065ZM9.01953 18.144C7.80911 18.144 6.67161 17.9144 5.60703 17.455C4.54245 16.9956 3.61641 16.3722 2.82891 15.5847C2.04141 14.7972 1.41797 13.8711 0.958594 12.8065C0.499219 11.742 0.269531 10.6045 0.269531 9.39404C0.269531 8.18363 0.499219 7.04613 0.958594 5.98154C1.41797 4.91696 2.04141 3.99092 2.82891 3.20342C3.61641 2.41592 4.54245 1.79248 5.60703 1.33311C6.67161 0.87373 7.80911 0.644043 9.01953 0.644043C10.2299 0.644043 11.3674 0.87373 12.432 1.33311C13.4966 1.79248 14.4227 2.41592 15.2102 3.20342C15.9977 3.99092 16.6211 4.91696 17.0805 5.98154C17.5398 7.04613 17.7695 8.18363 17.7695 9.39404C17.7695 10.6045 17.5398 11.742 17.0805 12.8065C16.6211 13.8711 15.9977 14.7972 15.2102 15.5847C14.4227 16.3722 13.4966 16.9956 12.432 17.455C11.3674 17.9144 10.2299 18.144 9.01953 18.144ZM9.01953 16.394C10.9591 16.394 12.6107 15.7123 13.9742 14.3487C15.3378 12.9852 16.0195 11.3336 16.0195 9.39404C16.0195 7.45446 15.3378 5.8029 13.9742 4.43936C12.6107 3.07581 10.9591 2.39404 9.01953 2.39404C7.07995 2.39404 5.42839 3.07581 4.06484 4.43936C2.7013 5.8029 2.01953 7.45446 2.01953 9.39404C2.01953 11.3336 2.7013 12.9852 4.06484 14.3487C5.42839 15.7123 7.07995 16.394 9.01953 16.394Z" fill="#555555"/>
</svg>
