<svg width="16" height="16" viewBox="0 0 16 16" fill="none" xmlns="http://www.w3.org/2000/svg">
<g clip-path="url(#clip0_107_8211)">
<path d="M7.92795 0.412598C3.79252 0.412598 0.428223 3.77708 0.428223 7.91251C0.428223 12.0481 3.79252 15.4126 7.92795 15.4126C12.0634 15.4126 15.4279 12.0481 15.4279 7.91251C15.4279 3.77708 12.0632 0.412598 7.92795 0.412598ZM7.92795 14.3283C4.39052 14.3283 1.51237 11.4501 1.51237 7.91251C1.51237 4.3749 4.39034 1.49692 7.92795 1.49692C11.4656 1.49692 14.3435 4.3749 14.3435 7.91251C14.3435 11.4501 11.4656 14.3283 7.92795 14.3283Z" fill="#24584C"/>
<path d="M10.098 8.60285C10.0951 8.60285 10.0926 8.60285 10.0897 8.60285L8.47007 8.62707V4.38845C8.47007 4.08899 8.22736 3.84628 7.9279 3.84628C7.62845 3.84628 7.38574 4.08899 7.38574 4.38845V9.17754C7.38574 9.17863 7.3861 9.17971 7.3861 9.1808C7.3861 9.1826 7.38574 9.18423 7.38574 9.18568C7.3861 9.20772 7.39026 9.22851 7.39315 9.24965C7.39496 9.26284 7.39514 9.2764 7.39767 9.28941C7.40255 9.31272 7.41068 9.33441 7.41845 9.35628C7.42243 9.36766 7.42496 9.37959 7.42966 9.39043C7.43905 9.41266 7.45171 9.4329 7.46381 9.45369C7.46942 9.4629 7.47357 9.47302 7.47954 9.48206C7.49327 9.50212 7.50972 9.52001 7.52598 9.53826C7.53285 9.54585 7.53845 9.55453 7.54568 9.56194C7.56321 9.57929 7.58291 9.59392 7.60261 9.60892C7.61056 9.61489 7.61761 9.62212 7.62574 9.62772C7.64706 9.64218 7.67038 9.65356 7.69369 9.66477C7.70182 9.66856 7.70905 9.67398 7.71736 9.67742C7.74447 9.6888 7.77339 9.69675 7.80266 9.7038C7.80809 9.70507 7.81315 9.7076 7.81875 9.70868C7.85381 9.71573 7.89013 9.71971 7.92736 9.71971C7.93007 9.71971 7.93296 9.71971 7.93568 9.71971L10.1058 9.68718C10.405 9.68266 10.6441 9.43616 10.6398 9.13688C10.6356 8.84032 10.3937 8.60285 10.098 8.60285Z" fill="#24584C"/>
</g>
<defs>
<clipPath id="clip0_107_8211">
<rect width="15" height="15" fill="white" transform="translate(0.427979 0.412598)"/>
</clipPath>
</defs>
</svg>
