<svg width="18" height="15" viewBox="0 0 18 15" fill="none" xmlns="http://www.w3.org/2000/svg">
<path d="M2.01953 14.894C1.53828 14.894 1.1263 14.7227 0.783594 14.38C0.440885 14.0373 0.269531 13.6253 0.269531 13.144V2.64404C0.269531 2.16279 0.440885 1.75081 0.783594 1.40811C1.1263 1.0654 1.53828 0.894043 2.01953 0.894043H16.0195C16.5008 0.894043 16.9128 1.0654 17.2555 1.40811C17.5982 1.75081 17.7695 2.16279 17.7695 2.64404V13.144C17.7695 13.6253 17.5982 14.0373 17.2555 14.38C16.9128 14.7227 16.5008 14.894 16.0195 14.894H2.01953ZM9.01953 8.76904L2.01953 4.39404V13.144H16.0195V4.39404L9.01953 8.76904ZM9.01953 7.01904L16.0195 2.64404H2.01953L9.01953 7.01904ZM2.01953 4.39404V2.64404V13.144V4.39404Z" fill="#555555"/>
</svg>
