<svg width="12" height="16" viewBox="0 0 12 16" fill="none" xmlns="http://www.w3.org/2000/svg">
<path d="M5.92798 3.0065C4.19312 3.0065 2.78198 4.41797 2.78198 6.1525C2.78198 7.88703 4.19345 9.29849 5.92798 9.29849C7.66251 9.29849 9.07397 7.88703 9.07397 6.1525C9.07397 4.41797 7.66284 3.0065 5.92798 3.0065ZM5.92798 8.23632C4.77915 8.23632 3.84448 7.30166 3.84448 6.15283C3.84448 5.004 4.77915 4.06933 5.92798 4.06933C7.07681 4.06933 8.01147 5.004 8.01147 6.15283C8.01147 7.30132 7.07681 8.23632 5.92798 8.23632Z" fill="#24584C"/>
<path d="M11.7551 6.15282C11.7551 4.58065 11.1386 3.1071 10.019 2.00309C8.89968 0.899419 7.41716 0.303755 5.84399 0.326333C4.32163 0.347915 2.88692 0.958189 1.8045 2.04526C0.722079 3.132 0.11745 4.56903 0.101513 6.09172C0.0862394 7.56727 0.62413 8.9804 1.61524 10.0705C2.11894 10.6243 2.58312 11.2067 3.00214 11.809C1.82276 12.0517 0.474716 12.5424 0.474716 13.5183C0.474716 14.1375 1.01294 14.6306 2.07444 14.9835C2.91116 15.2618 4.04638 15.4411 5.27124 15.4875C5.27124 15.4875 5.27124 15.4875 5.27157 15.4875C5.48872 15.4958 5.70952 15.4998 5.92833 15.4998C6.14714 15.4998 6.36794 15.4958 6.58509 15.4875C6.58509 15.4875 6.58509 15.4875 6.58542 15.4875C7.81028 15.4411 8.9455 15.2618 9.78222 14.9835C10.8437 14.6302 11.3819 14.1372 11.3819 13.5183C11.3819 12.5414 10.0312 12.0504 8.85021 11.808C9.26657 11.211 9.72976 10.6319 10.2338 10.0794C11.2146 9.00364 11.7551 7.60911 11.7551 6.15282ZM1.54817 13.5169C1.66538 13.3499 2.28727 12.9933 3.62436 12.7739C3.62503 12.7752 3.62603 12.7765 3.62669 12.7778C3.66155 12.8366 3.69608 12.8957 3.73028 12.9548C3.74024 12.9721 3.74987 12.9893 3.75983 13.0063C3.7844 13.0491 3.80897 13.0923 3.83288 13.1354C3.8445 13.156 3.85579 13.1763 3.86708 13.1969C3.89065 13.2394 3.9139 13.2819 3.93714 13.3247C3.9471 13.343 3.95706 13.3612 3.96669 13.3795C3.9989 13.4399 4.0311 13.5003 4.06265 13.5608C4.06364 13.5628 4.06464 13.5648 4.06563 13.5667C4.09618 13.6255 4.12606 13.6843 4.15561 13.7431C4.16491 13.7616 4.17421 13.7802 4.18351 13.7988C4.20509 13.8423 4.22667 13.8858 4.24792 13.9293C4.25788 13.9496 4.26784 13.9702 4.27747 13.9904C4.29938 14.0362 4.32097 14.0817 4.34255 14.1275C4.35019 14.1438 4.35782 14.1601 4.36546 14.1764C4.39401 14.2378 4.4219 14.2992 4.44979 14.361C4.45079 14.363 4.45179 14.3653 4.45278 14.3673C3.75054 14.2995 3.10673 14.184 2.5871 14.0299C1.89083 13.8241 1.61624 13.6069 1.54817 13.5169ZM10.3078 13.5169C10.2401 13.6069 9.9655 13.8244 9.26856 14.0309C8.74827 14.1853 8.1038 14.3009 7.40056 14.3686C7.40354 14.362 7.40653 14.355 7.40952 14.3483C7.43542 14.2902 7.46165 14.2325 7.48821 14.1747C7.48987 14.171 7.49153 14.1677 7.49286 14.1641C7.52108 14.1026 7.54997 14.0415 7.57952 13.9805C7.58815 13.9625 7.59679 13.9446 7.60542 13.9267C7.62667 13.8825 7.64825 13.8383 7.67017 13.7945C7.68013 13.7746 7.68976 13.755 7.69972 13.7351C7.72329 13.6883 7.7472 13.6411 7.7711 13.5943C7.77841 13.5804 7.78538 13.5661 7.79269 13.5521C7.8239 13.492 7.85544 13.4323 7.88731 13.3725C7.89495 13.3579 7.90292 13.3436 7.91089 13.329C7.93546 13.2832 7.96069 13.2374 7.98593 13.1919C7.99689 13.172 8.00817 13.152 8.01913 13.1321C8.04271 13.0896 8.06661 13.0474 8.09085 13.0053C8.10114 12.987 8.11177 12.9688 8.12206 12.9505C8.15593 12.8917 8.19013 12.8333 8.22466 12.7752C8.22499 12.7745 8.22565 12.7735 8.22599 12.7729C9.56739 12.9923 10.1906 13.3496 10.3078 13.5169ZM7.50581 11.9146C7.47327 11.9664 7.4414 12.0185 7.40952 12.0706C7.39923 12.0875 7.38927 12.1041 7.37897 12.1211C7.35739 12.1566 7.33614 12.1918 7.31489 12.2273C7.30261 12.2479 7.29065 12.2685 7.2787 12.2891C7.25978 12.321 7.24118 12.3528 7.22259 12.385C7.20964 12.4073 7.19669 12.4299 7.18407 12.4524C7.16681 12.4827 7.14921 12.5132 7.13194 12.5434C7.11866 12.567 7.10571 12.5906 7.09243 12.6141C7.07583 12.6437 7.05956 12.6732 7.04296 12.7028C7.02968 12.727 7.0164 12.7513 7.00345 12.7755C6.98751 12.8047 6.97157 12.8336 6.95597 12.8628C6.94269 12.8874 6.92974 12.9123 6.91645 12.9372C6.90118 12.9661 6.88591 12.9947 6.87097 13.0235C6.85769 13.0488 6.84474 13.0743 6.83145 13.0996C6.81685 13.1281 6.80224 13.1567 6.78763 13.1852C6.77468 13.2108 6.76173 13.2367 6.74878 13.2623C6.7345 13.2905 6.72022 13.319 6.70628 13.3476C6.69333 13.3735 6.68071 13.3994 6.6681 13.4256C6.65415 13.4539 6.64054 13.4821 6.62692 13.5106C6.61431 13.5369 6.60169 13.5631 6.5894 13.5893C6.57612 13.6175 6.56284 13.6458 6.54956 13.6737C6.53728 13.7002 6.52466 13.7268 6.5127 13.7533C6.49976 13.7816 6.48681 13.8098 6.47419 13.838C6.46224 13.8646 6.45028 13.8911 6.43833 13.918C6.42571 13.9463 6.41309 13.9748 6.40081 14.0034C6.38919 14.0299 6.37724 14.0568 6.36595 14.0834C6.35366 14.1116 6.34171 14.1402 6.32942 14.1684C6.3178 14.1953 6.30651 14.2222 6.29522 14.2494C6.28327 14.2776 6.27165 14.3062 6.26003 14.3347C6.24907 14.3616 6.23778 14.3885 6.22683 14.4157C6.22417 14.4221 6.22151 14.4287 6.21886 14.435C6.02495 14.4383 5.83104 14.4383 5.63714 14.435C5.61456 14.3796 5.59165 14.3241 5.56808 14.2687C5.56243 14.2554 5.55679 14.2421 5.55114 14.2288C5.53321 14.1863 5.51495 14.1438 5.49669 14.1013C5.48806 14.0811 5.47909 14.0611 5.47013 14.0409C5.45452 14.0054 5.43892 13.9698 5.42298 13.9343C5.41302 13.9117 5.40272 13.8895 5.39243 13.8672C5.37749 13.8344 5.36255 13.8012 5.34727 13.7683C5.33632 13.7447 5.32536 13.7211 5.3144 13.6976C5.29946 13.6657 5.28485 13.6341 5.26958 13.6023C5.25829 13.5784 5.24667 13.5541 5.23505 13.5302C5.22011 13.4993 5.20517 13.4681 5.19022 13.4373C5.17827 13.413 5.16632 13.3884 5.15437 13.3642C5.13909 13.3337 5.12415 13.3031 5.10888 13.2726C5.09659 13.2483 5.08431 13.2238 5.07202 13.1995C5.05642 13.169 5.04114 13.1388 5.0252 13.1085C5.01259 13.0843 4.99997 13.0601 4.98735 13.0358C4.97142 13.0056 4.95548 12.9754 4.93954 12.9452C4.92692 12.9213 4.91397 12.8974 4.90136 12.8735C4.88476 12.8429 4.86849 12.8124 4.85155 12.7818C4.83894 12.7586 4.82599 12.735 4.81304 12.7118C4.7961 12.6809 4.77884 12.65 4.76124 12.6191C4.74862 12.5962 4.73567 12.5736 4.72306 12.5507C4.70513 12.5192 4.6872 12.4876 4.66894 12.4561C4.65632 12.4342 4.64403 12.4123 4.63142 12.3907C4.61216 12.3575 4.59257 12.3246 4.57331 12.2917C4.56136 12.2718 4.54974 12.2516 4.53778 12.2316C4.51587 12.1951 4.49395 12.1586 4.47171 12.1221C4.46175 12.1058 4.45212 12.0895 4.44216 12.0733C4.40995 12.0208 4.37774 11.9683 4.34487 11.9159C4.34487 11.9159 4.34487 11.9156 4.34454 11.9156C3.78573 11.0211 3.13163 10.1601 2.40083 9.35592C1.59034 8.46475 1.15106 7.30962 1.16335 6.10301C1.18991 3.54006 3.29599 1.42536 5.85827 1.38917C7.14456 1.3709 8.35714 1.85766 9.27222 2.76012C10.1876 3.66258 10.692 4.86786 10.692 6.15315C10.692 7.34415 10.25 8.48401 9.44753 9.36323C8.7144 10.1671 8.06063 11.0257 7.50581 11.9146Z" fill="#24584C"/>
</svg>
