<svg width="17" height="17" viewBox="0 0 17 17" fill="none" xmlns="http://www.w3.org/2000/svg">
<g clip-path="url(#clip0_207_292)">
<path d="M11.835 13.9897L8.68698 12.2459C9.85698 11.3254 10.1747 9.51642 10.1747 8.50215V6.3909C10.1747 4.9929 8.31723 3.4359 6.45148 3.4359C4.58623 3.4359 2.67948 4.99315 2.67948 6.3909V8.50215C2.67948 9.4244 3.06971 11.2902 4.25173 12.2379L1.02246 13.9897C1.02246 13.9897 0.178711 14.3657 0.178711 14.8344V16.1014C0.178711 16.5677 0.557195 16.9462 1.02246 16.9462H11.835C12.3007 16.9462 12.6792 16.5677 12.6792 16.1014V14.8344C12.6792 14.3374 11.8349 13.9897 11.8349 13.9897L11.835 13.9897ZM11.6792 15.9462H1.17874V15.0522C1.25049 15 1.35074 14.9395 1.42974 14.9032C1.45323 14.8925 1.47673 14.8812 1.49898 14.8685L4.72848 13.117C5.02298 12.9572 5.21823 12.661 5.24798 12.3275C5.27773 11.994 5.13848 11.6672 4.87748 11.4577C4.03898 10.7855 3.67973 9.29645 3.67973 8.5022V6.39095C3.67973 5.6727 5.03373 4.43595 6.45173 4.43595C7.89598 4.43595 9.17498 5.65572 9.17498 6.39095V8.5022C9.17498 9.28545 8.93173 10.781 8.06898 11.4597C7.93893 11.5621 7.83628 11.6951 7.77023 11.8469C7.70418 11.9987 7.67678 12.1645 7.69048 12.3295C7.7044 12.4943 7.75895 12.6532 7.84926 12.7918C7.93956 12.9305 8.0628 13.0446 8.20798 13.124L11.356 14.8677C11.3837 14.883 11.419 14.8995 11.4482 14.9122C11.522 14.9435 11.6127 14.9957 11.6792 15.0417V15.9462V15.9462ZM15.3345 11.5L12.1397 9.75619C13.3097 8.83569 13.6745 7.02669 13.6745 6.01242V3.90117C13.6745 2.50317 11.7702 0.93042 9.90448 0.93042C8.69198 0.93042 7.45224 1.58967 6.73073 2.43394C7.14224 2.45942 7.59599 2.45994 7.98799 2.58494C8.51473 2.17469 9.18124 1.93069 9.90449 1.93069C11.3487 1.93069 12.6745 3.16592 12.6745 3.90144V6.01269C12.6745 6.79592 12.3845 8.29144 11.5217 8.97019C11.3917 9.07259 11.289 9.20563 11.223 9.35741C11.1569 9.50919 11.1295 9.67497 11.1432 9.83994C11.1572 10.0048 11.2117 10.1637 11.302 10.3023C11.3923 10.4409 11.5156 10.5551 11.6607 10.6344L14.8555 12.3782C14.8832 12.3934 14.9185 12.4099 14.9477 12.4227C15.0215 12.4539 15.1122 12.5062 15.1787 12.5522V13.4414H13.1602C13.465 13.6714 13.5572 14.0004 13.6755 14.4414H15.3347C15.8005 14.4414 16.179 14.0629 16.179 13.5967V12.3452C16.1787 11.8477 15.3345 11.4999 15.3345 11.4999L15.3345 11.5Z" fill="#24584C"/>
</g>
<defs>
<clipPath id="clip0_207_292">
<rect width="16" height="16" fill="white" transform="translate(0.178711 0.938477)"/>
</clipPath>
</defs>
</svg>
