<svg width="16" height="16" viewBox="0 0 16 16" fill="none" xmlns="http://www.w3.org/2000/svg">
<path d="M14.1445 8.06055C14.1445 6.3543 13.5503 4.9069 12.3617 3.71836C11.1732 2.52982 9.72578 1.93555 8.01953 1.93555V0.185547C9.11328 0.185547 10.1378 0.393359 11.093 0.808984C12.0482 1.22461 12.8794 1.78607 13.5867 2.49336C14.294 3.20065 14.8555 4.0319 15.2711 4.98711C15.6867 5.94232 15.8945 6.9668 15.8945 8.06055H14.1445ZM10.6445 8.06055C10.6445 7.33138 10.3893 6.71159 9.87891 6.20117C9.36849 5.69075 8.7487 5.43555 8.01953 5.43555V3.68555C9.22995 3.68555 10.2617 4.11211 11.1148 4.96523C11.968 5.81836 12.3945 6.85013 12.3945 8.06055H10.6445ZM14.9758 15.9355C13.1529 15.9355 11.3518 15.5382 9.57266 14.7434C7.79349 13.9486 6.17474 12.822 4.71641 11.3637C3.25807 9.90534 2.13151 8.28659 1.33672 6.50742C0.541927 4.72826 0.144531 2.92721 0.144531 1.1043C0.144531 0.841797 0.232031 0.623047 0.407031 0.448047C0.582031 0.273047 0.800781 0.185547 1.06328 0.185547H4.60703C4.8112 0.185547 4.99349 0.254818 5.15391 0.393359C5.31432 0.531901 5.40911 0.695964 5.43828 0.885547L6.00703 3.94805C6.0362 4.18138 6.02891 4.37826 5.98516 4.53867C5.94141 4.69909 5.8612 4.83763 5.74453 4.9543L3.62266 7.09805C3.91432 7.63763 4.26068 8.15898 4.66172 8.66211C5.06276 9.16523 5.50391 9.65013 5.98516 10.1168C6.43724 10.5689 6.9112 10.9882 7.40703 11.3746C7.90286 11.7611 8.42786 12.1147 8.98203 12.4355L11.0383 10.3793C11.1695 10.248 11.3409 10.1496 11.5523 10.084C11.7638 10.0184 11.9716 10.0001 12.1758 10.0293L15.1945 10.6418C15.3987 10.7001 15.5664 10.8059 15.6977 10.959C15.8289 11.1121 15.8945 11.2835 15.8945 11.473V15.0168C15.8945 15.2793 15.807 15.498 15.632 15.673C15.457 15.848 15.2383 15.9355 14.9758 15.9355ZM2.79141 5.43555L4.23516 3.9918L3.86328 1.93555H1.91641C1.98932 2.53346 2.09141 3.12409 2.22266 3.70742C2.35391 4.29076 2.54349 4.8668 2.79141 5.43555ZM10.6227 13.2668C11.1914 13.5147 11.7711 13.7116 12.3617 13.8574C12.9523 14.0033 13.5466 14.098 14.1445 14.1418V12.2168L12.0883 11.8012L10.6227 13.2668Z" fill="#555555"/>
</svg>
