<svg width="101" height="65" viewBox="0 0 101 65" fill="none" xmlns="http://www.w3.org/2000/svg">
<path d="M19.3027 64.7939C19.6036 64.7939 48.6274 64.3214 48.6274 24.6652C48.6424 20.2162 47.4505 15.8479 45.1807 12.0341C42.911 8.2203 39.6501 5.10648 35.7516 3.03032C31.8532 0.954152 27.466 -0.00511336 23.0658 0.25654C18.6656 0.518194 14.4204 1.99078 10.7904 4.51461C7.16049 7.03845 4.28439 10.5172 2.47401 14.5736C0.663628 18.6301 -0.0119285 23.1094 0.520595 27.5258C1.05312 31.9422 2.7734 36.1272 5.49489 39.6269C8.21637 43.1267 11.8352 45.8075 15.9589 47.3789V61.4189C15.9589 62.314 16.3112 63.1725 16.9383 63.8054C17.5654 64.4383 18.4159 64.7939 19.3027 64.7939ZM7.03112 24.6652C7.03112 19.9927 8.87006 15.5116 12.1434 12.2077C15.4167 8.90378 19.8563 7.04765 24.4855 7.04765C29.1147 7.04765 33.5543 8.90378 36.8276 12.2077C40.1009 15.5116 41.9399 19.9927 41.9399 24.6652C41.9399 49.9777 28.9661 56.0864 22.6464 57.5714V44.9152C22.6705 44.1487 22.4352 43.3969 21.9794 42.7834C21.5235 42.17 20.8743 41.7315 20.1386 41.5402C16.4159 40.5801 13.1121 38.4047 10.7415 35.3527C8.37087 32.3006 7.06639 28.5432 7.03112 24.6652Z" fill="#FF820F"/>
<path d="M71.2966 64.7938C71.5976 64.7938 100.655 64.3213 100.655 24.6651C100.668 20.2182 99.4744 15.8525 97.2047 12.0411C94.9349 8.22969 91.6752 5.11786 87.7785 3.04275C83.8818 0.967646 79.4968 0.00838827 75.0986 0.26891C70.7004 0.529432 66.4567 1.9998 62.8273 4.52071C59.1978 7.04162 56.321 10.5169 54.5086 14.5702C52.6961 18.6234 52.0171 23.0999 52.5451 27.5148C53.0731 31.9297 54.788 36.1146 57.5039 39.6161C60.2199 43.1175 63.8334 45.8021 67.9529 47.3788V61.4188C67.9529 62.3139 68.3052 63.1724 68.9322 63.8053C69.5593 64.4383 70.4098 64.7938 71.2966 64.7938ZM59.0585 24.6651C59.0585 19.9926 60.8974 15.5116 64.1708 12.2076C67.4441 8.90372 71.8837 7.04759 76.5129 7.04759C81.1421 7.04759 85.5817 8.90372 88.855 12.2076C92.1283 15.5116 93.9673 19.9926 93.9673 24.6651C93.9673 49.9776 80.9601 56.0863 74.6404 57.5713V44.9151C74.6644 44.1487 74.4291 43.3968 73.9733 42.7834C73.5175 42.1699 72.8683 41.7314 72.1326 41.5401C68.4161 40.5737 65.1198 38.3956 62.7557 35.3441C60.3915 32.2927 59.0918 28.5386 59.0585 24.6651Z" fill="#FF820F"/>
</svg>
