<svg width="23" height="24" viewBox="0 0 23 24" fill="none" xmlns="http://www.w3.org/2000/svg">
<g clip-path="url(#clip0_281_6340)">
<path d="M15.1568 14.2345C16.5896 12.541 17.3124 10.3593 17.1741 8.14533C17.0358 5.93138 16.0471 3.85656 14.4147 2.35458C12.7823 0.852604 10.6325 0.0397192 8.41468 0.0858453C6.19689 0.131971 4.08276 1.03354 2.5142 2.60209C0.945648 4.17065 0.0440808 6.28478 -0.00204533 8.50257C-0.0481715 10.7204 0.764714 12.8701 2.26669 14.5026C3.76867 16.135 5.84349 17.1237 8.05744 17.262C10.2714 17.4003 12.4531 16.6775 14.1466 15.2447L21.7051 22.8103L22.7153 21.8001L15.1568 14.2345ZM8.60129 15.8536C7.18429 15.8536 5.79912 15.4334 4.62093 14.6462C3.44274 13.859 2.52445 12.74 1.98219 11.4309C1.43993 10.1218 1.29805 8.68123 1.57449 7.29146C1.85093 5.90169 2.53328 4.62511 3.53525 3.62314C4.53722 2.62117 5.8138 1.93882 7.20357 1.66238C8.59334 1.38594 10.0339 1.52782 11.343 2.07008C12.6521 2.61234 13.7711 3.53063 14.5583 4.70882C15.3456 5.88701 15.7657 7.27218 15.7657 8.68918C15.7657 10.5893 15.0109 12.4116 13.6673 13.7552C12.3237 15.0988 10.5014 15.8536 8.60129 15.8536Z" fill="white"/>
<path d="M3.58594 8.68944H5.01883C5.01883 7.73937 5.39624 6.82822 6.06804 6.15642C6.73984 5.48462 7.65099 5.10721 8.60106 5.10721V3.67432C7.27097 3.67432 5.99535 4.20269 5.05483 5.14321C4.11431 6.08373 3.58594 7.35934 3.58594 8.68944Z" fill="white"/>
</g>
<defs>
<clipPath id="clip0_281_6340">
<rect width="22.9263" height="22.9263" fill="white" transform="translate(0.00390625 0.0922852)"/>
</clipPath>
</defs>
</svg>
