<svg width="17" height="17" viewBox="0 0 17 17" fill="none" xmlns="http://www.w3.org/2000/svg">
<path d="M8.82617 8.22705C7.72617 8.22705 6.78451 7.83538 6.00117 7.05205C5.21784 6.26872 4.82617 5.32705 4.82617 4.22705C4.82617 3.12705 5.21784 2.18538 6.00117 1.40205C6.78451 0.618717 7.72617 0.227051 8.82617 0.227051C9.92617 0.227051 10.8678 0.618717 11.6512 1.40205C12.4345 2.18538 12.8262 3.12705 12.8262 4.22705C12.8262 5.32705 12.4345 6.26872 11.6512 7.05205C10.8678 7.83538 9.92617 8.22705 8.82617 8.22705ZM0.826172 16.2271V13.4271C0.826172 12.8604 0.972005 12.3396 1.26367 11.8646C1.55534 11.3896 1.94284 11.0271 2.42617 10.7771C3.45951 10.2604 4.50951 9.87288 5.57617 9.61455C6.64284 9.35622 7.72617 9.22705 8.82617 9.22705C9.92617 9.22705 11.0095 9.35622 12.0762 9.61455C13.1428 9.87288 14.1928 10.2604 15.2262 10.7771C15.7095 11.0271 16.097 11.3896 16.3887 11.8646C16.6803 12.3396 16.8262 12.8604 16.8262 13.4271V16.2271H0.826172ZM2.82617 14.2271H14.8262V13.4271C14.8262 13.2437 14.7803 13.0771 14.6887 12.9271C14.597 12.7771 14.4762 12.6604 14.3262 12.5771C13.4262 12.1271 12.5178 11.7896 11.6012 11.5646C10.6845 11.3396 9.75951 11.2271 8.82617 11.2271C7.89284 11.2271 6.96784 11.3396 6.05117 11.5646C5.13451 11.7896 4.22617 12.1271 3.32617 12.5771C3.17617 12.6604 3.05534 12.7771 2.96367 12.9271C2.87201 13.0771 2.82617 13.2437 2.82617 13.4271V14.2271ZM8.82617 6.22705C9.37617 6.22705 9.84701 6.03122 10.2387 5.63955C10.6303 5.24788 10.8262 4.77705 10.8262 4.22705C10.8262 3.67705 10.6303 3.20622 10.2387 2.81455C9.84701 2.42288 9.37617 2.22705 8.82617 2.22705C8.27617 2.22705 7.80534 2.42288 7.41367 2.81455C7.02201 3.20622 6.82617 3.67705 6.82617 4.22705C6.82617 4.77705 7.02201 5.24788 7.41367 5.63955C7.80534 6.03122 8.27617 6.22705 8.82617 6.22705Z" fill="#555555"/>
</svg>
