<svg width="62" height="63" viewBox="0 0 62 63" fill="none" xmlns="http://www.w3.org/2000/svg">
<path d="M52.3139 49.5795L61.1024 58.4855C61.5123 58.9158 61.7391 59.492 61.7339 60.0902C61.7288 60.6883 61.4922 61.2605 61.075 61.6834C60.6578 62.1064 60.0935 62.3463 59.5036 62.3515C58.9136 62.3567 58.3453 62.1268 57.9209 61.7112L49.1324 52.8007C43.3893 57.7895 35.9637 60.3291 28.4136 59.8866C20.8635 59.4441 13.7759 56.0539 8.63805 50.4274C3.50019 44.8008 0.711437 37.3753 0.856986 29.709C1.00254 22.0427 4.07107 14.7316 9.41869 9.30966C14.7663 3.88776 21.9773 0.776605 29.5386 0.629034C37.0999 0.481464 44.4237 3.30895 49.9732 8.51817C55.5226 13.7274 58.8664 20.9134 59.3028 28.5684C59.7393 36.2233 57.2344 43.7521 52.3139 49.575V49.5795ZM30.1019 55.3739C36.666 55.3739 42.9613 52.7301 47.6028 48.0241C52.2443 43.3181 54.8519 36.9354 54.8519 30.2802C54.8519 23.6249 52.2443 17.2422 47.6028 12.5362C42.9613 7.8302 36.666 5.18641 30.1019 5.18641C23.5378 5.18641 17.2426 7.8302 12.601 12.5362C7.95951 17.2422 5.35193 23.6249 5.35193 30.2802C5.35193 36.9354 7.95951 43.3181 12.601 48.0241C17.2426 52.7301 23.5378 55.3739 30.1019 55.3739ZM27.8519 27.9989V21.1552C27.8519 20.5501 28.089 19.9699 28.5109 19.5421C28.9329 19.1143 29.5052 18.8739 30.1019 18.8739C30.6987 18.8739 31.271 19.1143 31.6929 19.5421C32.1149 19.9699 32.3519 20.5501 32.3519 21.1552V27.9989H39.1019C39.6987 27.9989 40.271 28.2393 40.6929 28.6671C41.1149 29.0949 41.3519 29.6751 41.3519 30.2802C41.3519 30.8852 41.1149 31.4654 40.6929 31.8932C40.271 32.3211 39.6987 32.5614 39.1019 32.5614H32.3519V39.4052C32.3519 40.0102 32.1149 40.5904 31.6929 41.0182C31.271 41.4461 30.6987 41.6864 30.1019 41.6864C29.5052 41.6864 28.9329 41.4461 28.5109 41.0182C28.089 40.5904 27.8519 40.0102 27.8519 39.4052V32.5614H21.1019C20.5052 32.5614 19.9329 32.3211 19.5109 31.8932C19.089 31.4654 18.8519 30.8852 18.8519 30.2802C18.8519 29.6751 19.089 29.0949 19.5109 28.6671C19.9329 28.2393 20.5052 27.9989 21.1019 27.9989H27.8519Z" fill="#FF820F"/>
</svg>
